<svg width="27" height="28" viewBox="0 0 27 28" fill="none" xmlns="http://www.w3.org/2000/svg">
<g clip-path="url(#clip0)">
<path d="M26.9736 8.23208C26.9104 6.74433 26.6784 5.72152 26.346 4.83523C26.0032 3.89447 25.4758 3.0522 24.7847 2.35202C24.1096 1.64095 23.292 1.08841 22.3954 0.738425C21.5358 0.393784 20.5546 0.153198 19.12 0.0876025C17.6747 0.0164522 17.2159 0 13.5501 0C9.88436 0 9.42553 0.0164522 7.98556 0.0820473C6.55094 0.147642 5.56466 0.388443 4.71024 0.73287C3.80286 1.08841 2.99068 1.63539 2.31551 2.35202C1.62982 3.0522 1.09723 3.90002 0.759538 4.82989C0.427206 5.72152 0.195212 6.73877 0.131959 8.22652C0.0633499 9.72538 0.0474854 10.2012 0.0474854 14.0027C0.0474854 17.8043 0.0633499 18.2801 0.126602 19.7734C0.189855 21.2611 0.422055 22.284 0.754387 23.1702C1.09723 24.111 1.62982 24.9533 2.31551 25.6534C2.99068 26.3645 3.80822 26.9171 4.70488 27.267C5.56466 27.6117 6.54559 27.8523 7.9804 27.9179C9.42017 27.9837 9.87921 27.9999 13.545 27.9999C17.2107 27.9999 17.6696 27.9837 19.1095 27.9179C20.5441 27.8523 21.5304 27.6117 22.3848 27.267C24.1994 26.5395 25.634 25.0518 26.3355 23.1702C26.6677 22.2786 26.8999 21.2611 26.9631 19.7734C27.0264 18.2801 27.0422 17.8043 27.0422 14.0027C27.0422 10.2012 27.0369 9.72538 26.9736 8.23208ZM24.5422 19.664C24.4841 21.0315 24.2626 21.7699 24.078 22.2622C23.6243 23.482 22.6908 24.4501 21.5146 24.9206C21.0399 25.112 20.3227 25.3417 19.0092 25.4018C17.5851 25.4676 17.158 25.4838 13.5555 25.4838C9.95297 25.4838 9.52051 25.4676 8.10155 25.4018C6.78294 25.3417 6.07088 25.112 5.59618 24.9206C5.01084 24.6962 4.47804 24.3407 4.04557 23.8758C3.59724 23.4217 3.2544 22.8747 3.03807 22.2677C2.85346 21.7754 2.63197 21.0315 2.57408 19.6696C2.51062 18.1927 2.49496 17.7496 2.49496 14.0136C2.49496 10.2777 2.51062 9.82922 2.57408 8.35793C2.63197 6.99047 2.85346 6.25205 3.03807 5.75976C3.2544 5.15253 3.59724 4.6002 4.05093 4.15151C4.48854 3.68657 5.01599 3.33103 5.60154 3.1069C6.07624 2.91546 6.79365 2.68577 8.10691 2.62551C9.53101 2.55992 9.95833 2.54347 13.5606 2.54347C17.1685 2.54347 17.5956 2.55992 19.0145 2.62551C20.3332 2.68577 21.0452 2.91546 21.5199 3.1069C22.1053 3.33103 22.6381 3.68657 23.0705 4.15151C23.5189 4.60554 23.8617 5.15253 24.078 5.75976C24.2626 6.25205 24.4841 6.99581 24.5422 8.35793C24.6055 9.83478 24.6213 10.2777 24.6213 14.0136C24.6213 17.7496 24.6055 18.1871 24.5422 19.664Z" fill="white"/>
<path d="M13.5501 6.80994C9.72092 6.80994 6.61414 10.0316 6.61414 14.0028C6.61414 17.9739 9.72092 21.1956 13.5501 21.1956C17.3794 21.1956 20.486 17.9739 20.486 14.0028C20.486 10.0316 17.3794 6.80994 13.5501 6.80994ZM13.5501 18.6685C11.0659 18.6685 9.0509 16.5791 9.0509 14.0028C9.0509 11.4264 11.0659 9.33695 13.5501 9.33695C16.0344 9.33695 18.0492 11.4264 18.0492 14.0028C18.0492 16.5791 16.0344 18.6685 13.5501 18.6685V18.6685Z" fill="white"/>
<path d="M22.3796 6.52554C22.3796 7.45284 21.6546 8.20473 20.7602 8.20473C19.866 8.20473 19.141 7.45284 19.141 6.52554C19.141 5.59802 19.866 4.84634 20.7602 4.84634C21.6546 4.84634 22.3796 5.59802 22.3796 6.52554V6.52554Z" fill="white"/>
</g>
<defs>
<clipPath id="clip0">
<rect width="27" height="28" fill="white"/>
</clipPath>
</defs>
</svg>
