<svg width="66" height="66" viewBox="0 0 66 66" fill="none" xmlns="http://www.w3.org/2000/svg">
<g clip-path="url(#clip0)">
<path d="M35.9566 0H30.0866C26.8333 0 23.7346 1.29577 21.3616 3.64855C18.9703 6.01938 17.6534 9.13924 17.6534 12.43L17.6102 25.3676C17.6084 25.9017 18.0399 26.3361 18.5738 26.3378H18.5771C19.1096 26.3378 19.5422 25.9069 19.544 25.3741L19.5688 17.9353H37.2428C38.4977 17.9537 38.4971 15.9829 37.2428 16.0015H33.9427V9.7391C33.9427 9.20499 33.5099 8.7722 32.9758 8.7722C32.4417 8.7722 32.0089 9.20499 32.0089 9.7391V16.0015H19.5753L19.5872 12.4333C19.5872 6.74198 24.3953 1.93379 30.0865 1.93379H32.0088V5.1221C32.0088 5.65622 32.4416 6.089 32.9757 6.089C33.5098 6.089 33.9426 5.65622 33.9426 5.1221V1.93379H35.9565C41.7458 1.93379 46.4558 6.64387 46.4558 12.4333V16.0015H41.8597C40.6048 15.9831 40.6054 17.9539 41.8597 17.9353H46.4558V34.9447C46.4558 40.5033 42.0992 45.0596 36.6307 45.3627V41.9633C36.6307 40.0085 35.0402 38.418 33.0854 38.418C31.1306 38.418 29.5401 40.0085 29.5401 41.9633V45.3632C24.001 45.0637 19.587 40.5058 19.587 34.9447V30.1197C19.587 29.5856 19.1542 29.1528 18.6201 29.1528C18.086 29.1528 17.6532 29.5856 17.6532 30.1197V34.9447C17.6532 41.5719 22.934 46.998 29.5401 47.2997V53.9668L26.3102 50.7368C24.9278 49.3544 22.6785 49.3545 21.2961 50.7369C19.914 52.1192 19.914 54.3685 21.2961 55.7509L30.5139 64.9686C31.8336 66.3438 34.2082 66.3438 35.5279 64.9685L39.1216 61.3747C39.4992 60.9971 39.4992 60.3849 39.1214 60.0074C38.744 59.6299 38.1317 59.6298 37.7541 60.0076L34.1605 63.6012C33.5609 64.2263 32.481 64.2263 31.8814 63.6012L22.6637 54.3836C22.0353 53.7552 22.0353 52.7326 22.6637 52.1044C23.2634 51.4791 24.343 51.4791 24.9427 52.1044L29.8093 56.9711C30.3927 57.5855 31.4903 57.12 31.4739 56.2735V41.9635C31.4739 41.0748 32.1968 40.352 33.0854 40.352C33.9741 40.352 34.6969 41.0748 34.6969 41.9635V56.1446C34.6805 56.9912 35.778 57.4566 36.3614 56.8422L41.0992 52.1044C41.7274 51.4759 42.75 51.476 43.3782 52.1043C44.0066 52.7326 44.0066 53.7552 43.3782 54.3834L40.9449 56.8168C40.5673 57.1945 40.5673 57.8066 40.9449 58.1842C41.3226 58.5617 41.9346 58.5617 42.3123 58.1842L44.7458 55.7506C46.128 54.3684 46.128 52.1191 44.7458 50.7367C43.3634 49.3543 41.1141 49.3543 39.7317 50.7367L36.6307 53.8377V47.2998C39.7194 47.1585 42.5968 45.8906 44.7865 43.693C47.1099 41.3611 48.3896 38.2542 48.3896 34.9447V12.4333C48.3897 5.57758 42.8123 0 35.9566 0V0Z" fill="white"/>
</g>
<defs>
<clipPath id="clip0">
<rect width="66" height="66" fill="white"/>
</clipPath>
</defs>
</svg>
