<svg width="28" height="28" viewBox="0 0 28 28" fill="none" xmlns="http://www.w3.org/2000/svg">
<g clip-path="url(#clip0)">
<path fill-rule="evenodd" clip-rule="evenodd" d="M23.9236 4.06909C21.2937 1.44648 17.7962 0.00153808 14.0701 0C6.39219 0 0.143489 6.22395 0.140401 13.8737C0.139372 16.3191 0.780713 18.7062 1.99974 20.8103L0.0235596 28L7.40791 26.0706C9.4426 27.1761 11.7333 27.7587 14.0644 27.7594H14.0703C21.7473 27.7594 27.9967 21.5349 27.9996 13.8848C28.0012 10.1773 26.5536 6.69153 23.9236 4.06909ZM14.0701 25.4162H14.0653C11.9879 25.4153 9.95045 24.8592 8.17261 23.8087L7.75002 23.5587L3.36804 24.7037L4.53766 20.4482L4.26228 20.0119C3.1033 18.1757 2.4913 16.0535 2.49233 13.8746C2.49473 7.51628 7.6886 2.34336 14.0747 2.34336C17.1672 2.34438 20.0741 3.54546 22.26 5.72527C24.4458 7.90508 25.6489 10.8025 25.6479 13.884C25.6451 20.2427 20.4516 25.4162 14.0701 25.4162V25.4162ZM20.4207 16.7791C20.0728 16.6055 18.3615 15.7671 18.0424 15.6512C17.7236 15.5355 17.4913 15.4779 17.2595 15.8249C17.0273 16.1718 16.3604 16.9528 16.1573 17.184C15.9541 17.4154 15.7513 17.4445 15.4032 17.2708C15.0551 17.0974 13.9337 16.7311 12.6042 15.55C11.5696 14.6308 10.8711 13.4955 10.668 13.1486C10.4652 12.8013 10.6663 12.6318 10.8207 12.4411C11.1974 11.975 11.5747 11.4864 11.6907 11.2552C11.8069 11.0238 11.7487 10.8213 11.6616 10.6478C11.5747 10.4744 10.8787 8.76794 10.5887 8.07358C10.306 7.39785 10.0193 7.48911 9.80547 7.47851C9.60267 7.46843 9.37053 7.46638 9.1384 7.46638C8.90643 7.46638 8.52931 7.55303 8.21018 7.90029C7.89123 8.24739 6.99218 9.08598 6.99218 10.7924C6.99218 12.4988 8.23935 14.1473 8.41333 14.3787C8.5873 14.6101 10.8677 18.1118 14.359 19.6133C15.1894 19.9708 15.8376 20.184 16.3433 20.3437C17.1771 20.6076 17.9356 20.5704 18.5355 20.4811C19.2043 20.3815 20.5945 19.6424 20.8848 18.8327C21.1748 18.0228 21.1748 17.3288 21.0876 17.184C21.0008 17.0394 20.7687 16.9528 20.4207 16.7791V16.7791Z" fill="white"/>
</g>
<defs>
<clipPath id="clip0">
<rect width="28" height="28" fill="white"/>
</clipPath>
</defs>
</svg>
