<svg width="573" height="887" viewBox="0 0 573 887" fill="none" xmlns="http://www.w3.org/2000/svg">
<g clip-path="url(#clip0)">
<path d="M28.0704 885.426H11.102L74.3136 556.913L88.4225 559.593L28.0704 885.426Z" fill="#0E2E35"/>
<path d="M495.755 883.951L509.856 881.263L448.93 556.913L434.829 559.593L495.755 883.951Z" fill="#0E2E35"/>
<path d="M338.607 885.426H321.646L384.85 556.913L398.951 559.593L338.607 885.426Z" fill="#0E2E35"/>
<path d="M182.613 885.426L196.386 885.59L135.78 558.388L121.68 561.068L182.613 885.426Z" fill="#0E2E35"/>
<path d="M244.137 114.481C188.3 120.48 116.034 126.815 43.4904 250.371C-35.8049 385.4 5.93202 587.12 68.5129 643.166C131.094 699.22 335.485 768.435 507.3 664.817C507.3 664.817 611.044 602.027 557.804 497.811C475.87 337.443 487.447 303.999 450.815 241.151C414.182 178.312 362.671 101.738 244.137 114.481Z" fill="#FAE0B2"/>
<path d="M43.4903 250.362C93.0027 166.036 142.392 136.321 186.505 124.036C169.439 141.762 152.142 164.561 134.822 194.055C55.5346 329.092 97.2715 530.804 159.852 586.858C215.354 636.569 382.375 696.605 539.303 637.298C523.17 655.212 507.308 664.817 507.308 664.817C335.485 768.435 131.094 699.228 68.5128 643.166C5.93202 587.12 -35.8049 385.4 43.4903 250.362Z" fill="#F7CC7F"/>
<path d="M423.416 319.733L437.77 362.945L394.026 345.678L423.416 319.733Z" fill="#F79C8D"/>
<path d="M378.319 191.137C381.236 191.26 389.225 193.931 400.908 216.017C415.828 244.224 437.639 329.427 437.639 329.427L372.543 353.676L364.178 335.893L350.405 198.971C350.405 198.971 377.516 191.104 378.319 191.137Z" fill="#DD513A"/>
<path d="M292.273 178.853C310.888 178.877 356.943 184.311 378.328 191.137C378.328 191.137 394.034 326.15 364.186 428.734C357.508 451.697 369.708 523.928 369.708 523.928L176.812 521.379C176.812 521.379 199.664 346.752 191.052 318.553C182.441 290.346 182.236 192.047 182.236 192.047C182.236 192.047 183.556 191.842 225.571 184.573C245.178 181.188 272.396 178.828 292.273 178.853Z" fill="#F47458"/>
<path d="M269.791 774.515C269.791 774.515 274.059 823.776 281.9 837.42C289.75 851.065 281.491 874.257 281.073 877.436C280.663 880.616 264.555 885.164 238.951 882.435C213.347 879.706 213.756 873.798 215.821 864.242C217.886 854.695 231.511 842.411 232.339 833.323C233.166 824.226 224.49 791.487 224.49 791.487L269.791 774.515Z" fill="#F7A491"/>
<path d="M347.947 483.272C347.947 483.272 481.105 475.88 510.838 493.893C540.572 511.905 505.464 548.89 505.464 548.89C505.464 548.89 397.057 596.035 215.575 606.509C172.601 608.992 168.898 494.426 176.927 484.952C184.965 475.462 347.947 483.272 347.947 483.272Z" fill="#256653"/>
<path d="M235.764 886.262C209.397 883.451 212.658 870.495 214.789 860.661C216.116 854.507 223.678 847.246 228.193 840.378C230.553 842.255 234.387 845.574 245.833 848.95C257.722 852.466 274.018 845.509 284.408 841.157C288.111 854.933 288.275 872.511 287.931 875.174C287.505 878.46 262.13 889.073 235.764 886.262Z" fill="#184655"/>
<path d="M250.315 578.555C255.632 618.817 281.974 819.267 281.974 819.267L220.86 826.847C220.86 826.847 145.702 565.222 149.553 525.206C153.404 485.19 181.54 481.822 181.54 481.822C181.54 481.822 236.239 471.963 250.315 578.555Z" fill="#3C8F7C"/>
<path d="M180.139 207.051C198.172 200.282 206.997 362.822 209.43 429.717C241.368 432.791 297.041 429.742 310.896 428.701C317.418 428.21 332.445 422.703 338.926 421.858C345.571 420.99 351.593 420.531 354.862 421.105C356.058 421.318 389.348 434.929 392.199 437.912C395.73 441.617 405.275 450.959 403.67 454.999C402.055 459.039 385.308 443.747 385.308 443.747L377.123 439.15C387.316 449.107 406.75 462.227 403.956 466.996C401.228 471.651 383.686 458.343 371.191 449.271C381.908 458.957 395.23 476.281 392.158 478.986C389.397 481.411 374.255 461.35 358.065 455.573C352.068 453.434 346.087 459.359 341.367 460.08C337.902 460.604 332.543 461.727 329.143 460.76L311.617 455.786C305.644 456.327 305.497 459.859 299.467 461.145C292.47 462.637 280.983 464.202 272.068 466.382C220.737 478.928 203.613 484.755 187.898 484.747C140.278 484.722 137.517 223.048 180.139 207.051Z" fill="#F7A491"/>
<path d="M145.915 359.65C142.54 291.124 143.031 206.658 181.442 192.251C196.591 186.564 223.31 220.753 218.508 361.044C198 362.732 167.898 364.092 145.915 359.65Z" fill="#DD513A"/>
<path d="M360.785 330.206H356.869L298.016 474.864L302.072 474.249L360.785 330.206Z" fill="#F79C8D"/>
<path d="M448.512 816.654C448.512 816.654 443.178 833.757 452.732 845.066C462.277 856.375 501.957 867.471 507.168 873.593C512.379 879.715 511.986 884.935 511.986 884.935L400.622 881.87L401.835 848.229L406.964 824.054L448.512 816.654Z" fill="#F7A491"/>
<path d="M459.655 850.704C459.655 850.704 431.036 862.284 417.213 855.424C403.391 848.565 403.809 846.672 399.811 849.229C395.812 851.786 394.379 883.32 394.379 883.32L519.606 887C528.323 886.795 532.723 880.378 525.644 874.887C520.785 871.118 515.181 868.602 511.994 866.766C502.203 861.153 459.655 850.704 459.655 850.704Z" fill="#184655"/>
<path d="M444.292 514.84C452.895 496.72 472.477 473.135 506.922 487.337C539.777 500.883 548.593 534.188 538.229 568.287C527.864 602.387 459.63 802.853 457.246 830.421L402.76 830.781C402.76 830.781 412.666 672.052 415.091 633.683C417.426 596.765 429.397 546.194 444.292 514.84Z" fill="#3C8F7C"/>
<path d="M532.739 330.206H350.618C345.8 330.206 341.458 333.123 339.63 337.606L283.555 474.872H183.146C180.336 474.872 178.066 477.15 178.066 479.97C178.066 482.78 180.344 485.067 183.146 485.067H468.905C476.762 485.067 483.882 480.437 487.102 473.25L543.571 347.014C547.102 339.114 541.35 330.206 532.739 330.206Z" fill="black"/>
<path d="M434.682 410.132C433.453 416.294 428.094 420.416 422.711 419.343C417.328 418.261 413.969 412.394 415.198 406.223C416.427 400.06 421.785 395.93 427.168 397.011C432.551 398.093 435.911 403.969 434.682 410.132Z" fill="white"/>
<path d="M335.55 13.9611C330.061 12.109 324.653 10.0275 319.442 7.51162C313.543 4.66796 305.898 1.3326 301.072 0.586851C290.905 -0.986588 273.445 0.0623712 263.801 10.5274C251.79 23.5656 230.446 12.8793 234.739 81.1518C239.606 158.422 282.564 149.941 283.604 148.629C284.645 147.318 321.916 99.1972 321.916 99.1972C321.916 99.1972 334.944 127.708 334.944 126.659C334.944 125.642 401.482 36.1695 335.55 13.9611Z" fill="#0E2E35"/>
<path d="M302.941 154.325L306.652 181.934C306.652 181.934 314.96 221.712 304.268 229.383C293.584 237.053 258.82 180.803 258.82 180.803L262.49 110.842L302.941 154.325Z" fill="#F7A491"/>
<path d="M261.31 133.518C270.135 157.382 291.167 172.051 306.087 177.738L302.941 154.333L262.49 110.851L261.31 133.518Z" fill="#F47458"/>
<path d="M300.745 34.711C323.391 31.056 343.703 49.2735 343.137 71.9408C342.891 81.7994 342.08 94.1001 340.032 107.351C335.108 139.222 313.371 167.29 298.992 164.782C284.612 162.274 248.447 134.78 254.813 89.429C258.746 61.4267 276.984 38.5462 300.745 34.711Z" fill="#F7A491"/>
<path d="M264.792 94.8457C263.58 101.852 257.967 106.728 252.257 105.737C246.546 104.737 242.9 98.2548 244.112 91.2399C245.325 84.2332 250.938 79.3571 256.648 80.3487C262.359 81.3485 266.005 87.839 264.792 94.8457Z" fill="#F7A491"/>
<path d="M256.648 80.3486C256.648 80.3486 274.026 84.6673 280.483 73.4894C286.931 62.3114 309.995 38.1771 339.319 48.1832C368.635 58.1893 313.518 23.8605 311.175 23.8605C308.832 23.8605 280.688 23.6638 280.688 23.6638C280.688 23.6638 258.992 41.5125 258.205 43.4793C257.427 45.4379 251.167 66.8187 251.167 66.8187L256.648 80.3486Z" fill="#0E2E35"/>
<path d="M288.447 127.003L320.073 133.051C320.073 133.051 317.058 144.966 303.072 142.712C286.021 139.959 288.447 127.003 288.447 127.003Z" fill="white"/>
</g>
<defs>
<clipPath id="clip0">
<rect width="573" height="887" fill="white"/>
</clipPath>
</defs>
</svg>
